<?xml version="1.0" encoding="UTF-8"?><svg id="Layer_1" xmlns="http://www.w3.org/2000/svg" viewBox="0 0 48 48"><defs><style>.cls-1{fill:#0039d5;}</style></defs><path class="cls-1" d="M42.2,25.43l-18.87-11.24-.18-.11-2.95,5.11-.63-1.42.88-.48-1.63-3.61.76-.43-3.14-7.21-3.14,7.21.76.43-1.63,3.61.88.48-.38.85-2.15-4.93-3.14,7.21.76.43-1.63,3.61.88.48-1.82,4.11,4.75,2.59v2.21h.42v-2.21l4.75-2.59-1.82-4.11.88-.48-.75-1.67,2.19,1.19v2.21h.42v-2.21l1.31-.71.98.58v5.94h.02l-1.98,6.36,4.77,2.56v2.07h.42v-2.07l4.77-2.56-.37-1.18,5.29,3.15,9.05-5.56v-7.89l1.08.64.22-.36ZM19.9,17.1l-3.26,1.78v-3.97l1.8-1.02,1.46,3.22ZM16.64,14.43v-6.84l2.39,5.49-2.39,1.36ZM16.22,7.58v6.84l-2.39-1.36,2.39-5.49ZM14.41,13.89l1.8,1.02v3.97l-3.26-1.78,1.46-3.22ZM10.97,22.07v-6.84l2.39,5.49-2.39,1.36ZM10.55,15.23v6.84l-2.39-1.36,2.39-5.49ZM8.75,21.53l1.8,1.02v3.97l-3.26-1.78,1.46-3.22ZM6.34,29.33l1.65-3.72,2.56,1.39v4.62l-4.21-2.29ZM15.18,29.33l-4.21,2.29v-4.62l2.56-1.39,1.65,3.72ZM10.97,26.53v-3.97l1.8-1.02,1.46,3.22-3.26,1.78ZM13.74,22.63l-.59-1.3.76-.43-.76-1.75.52-1.17,2.56,1.4v4.62l-2.48-1.35ZM16.64,19.36l2.56-1.4.74,1.67-2.15,3.71-1.15.63v-4.62ZM23.3,14.66l12.35,7.36-5.07,8.77-6.68-3.98-.02.03-1.94-6.25-1.32,4.26-2.39-1.42,5.07-8.77ZM19.35,24.58l1.15.68-1.15,3.7v-4.38ZM17.47,36.42l4.27-13.73v16.02l-4.27-2.29ZM22.16,38.71v-16.02l4.27,13.73-4.27,2.29ZM24.06,27.39l6.68,3.98.9-1.56v8.17l-5.2-3.1-.06-.04-2.32-7.46ZM40.49,32.81l-8.42,5.17v-8.9l3.95-6.84,4.47,2.66v7.91Z"/></svg>