<?xml version="1.0" encoding="UTF-8"?><svg id="Layer_1" xmlns="http://www.w3.org/2000/svg" viewBox="0 0 48 48"><defs><style>.cls-1{fill:#0039d5;}</style></defs><path class="cls-1" d="M15.66,19.99l-.18-.11-3.03,5.24-.78-1.72.6-.34-2.54-5.84-2.54,5.84.6.34-1.27,2.8-1.27-2.92-2.54,5.84.6.34-1.29,2.86.69.38-1.44,3.25,3.77,2.05v1.72h.42v-1.72l3.77-2.05-1.44-3.25.69-.38-.56-1.24,1.6.87v1.72h.42v-1.72l1.54-.84v4.69l12.13,7.22.11.07,8.57-5.26v-7.45l1,.6.22-.36-17.83-10.62ZM5.03,37.52l-3.23-1.76,1.27-2.86,1.96,1.07v3.55ZM5.03,33.48l-2.48-1.35,1.12-2.46,1.36.77v3.04ZM5.03,29.95l-1.79-1.02,1.79-4.11v5.13ZM6.56,26.3l.63.34-.24.54-.39-.89ZM5.46,24.82l1.79,4.11-1.79,1.02v-5.13ZM8.69,35.76l-3.23,1.76v-3.55l1.96-1.07,1.27,2.86ZM7.94,32.13l-2.48,1.35v-3.04l1.36-.77,1.12,2.46ZM9.52,31.46l-1.88-1.03-.45-.98.6-.34-.61-1.41.38-.87,1.96,1.07v3.55ZM9.52,27.43l-2.48-1.35,1.12-2.46,1.36.77v3.04ZM9.52,23.9l-1.79-1.02,1.79-4.11v5.13ZM9.94,18.77l1.79,4.11-1.79,1.02v-5.13ZM9.94,24.39l1.36-.77.89,1.96-.53.92-1.72.94v-3.04ZM11.48,30.63l-1.54.84v-3.55l1.31-.72-.97,1.68,1.2.71v1.03ZM23.5,42.47l-11.6-6.91v-5.72l10.76,6.41.84-1.45v7.66ZM22.51,35.67l-11.66-6.95,4.78-8.27,11.66,6.95-4.78,8.27ZM31.86,37.59l-7.94,4.87v-8.39l3.73-6.46,4.21,2.51v7.46Z"/><polygon class="cls-1" points="32.56 11.19 32.56 13.98 34.22 14.97 34.22 12.18 32.56 11.19"/><polygon class="cls-1" points="32.56 21.82 34.22 22.81 34.22 20.15 32.56 19.16 32.56 21.82"/><polygon class="cls-1" points="34.22 26.86 34.22 24.07 32.56 23.08 32.56 25.87 34.22 26.86"/><polygon class="cls-1" points="34.22 16.23 32.56 15.24 32.56 17.9 34.22 18.89 34.22 16.23"/><polygon class="cls-1" points="35.31 12.83 35.31 15.61 36.97 16.6 36.97 13.81 35.31 12.83"/><polygon class="cls-1" points="35.31 23.45 36.97 24.44 36.97 21.78 35.31 20.8 35.31 23.45"/><polygon class="cls-1" points="36.97 28.49 36.97 25.7 35.31 24.72 35.31 27.5 36.97 28.49"/><polygon class="cls-1" points="36.97 17.86 35.31 16.88 35.31 19.53 36.97 20.52 36.97 17.86"/><polygon class="cls-1" points="29.81 9.56 29.81 12.35 31.47 13.33 31.47 10.55 29.81 9.56"/><polygon class="cls-1" points="29.81 20.19 31.47 21.17 31.47 18.52 29.81 17.53 29.81 20.19"/><polygon class="cls-1" points="31.47 25.22 31.47 22.44 29.81 21.45 29.81 24.24 31.47 25.22"/><polygon class="cls-1" points="31.47 14.6 29.81 13.61 29.81 16.27 31.47 17.25 31.47 14.6"/><path class="cls-1" d="M42.74,20.3l-.46,1.48v-11.13l-10.6-6.36-.11-.07-3.49,2.18v18.96l8.51,5.11-2.47,7.96,3.79,2.03v1.62h.42v-1.62l3.79-2.03-1.29-4.14,1.7.91v1.61h.42v-1.61l3.79-2.03-4-12.87ZM41.86,23.13l-2.25,7.24-.61-1.98v-15.46l2.86-1.79v11.98h0ZM31.58,4.71l10.09,6.06-2.88,1.8c-1.04-.62-7.27-4.37-10.09-6.06l2.88-1.8ZM37.91,39.98l-3.28-1.76,3.28-10.56v12.32ZM38.12,25.56l-1.4,4.5-8.22-4.93V6.89c2.83,1.7,9.05,5.44,10.07,6.05v14.1l-.46-1.48ZM41.61,38.22l-3.28,1.76v-12.32l3.28,10.56ZM42.53,34.72l-1.88-1.01-.82-2.63,2.7-8.68v12.32ZM42.95,22.4l3.28,10.56-3.28,1.76v-12.32Z"/></svg>