<?xml version="1.0" encoding="UTF-8"?><svg id="Layer_1" xmlns="http://www.w3.org/2000/svg" viewBox="0 0 48 48"><defs><style>.cls-1{fill:#0039d5;}</style></defs><polygon class="cls-1" points="37.7 44.29 26.21 44.29 26.21 36.34 21.86 36.34 21.86 44.29 10.37 44.29 10.37 33.76 10.79 33.76 10.79 43.86 21.44 43.86 21.44 35.92 26.64 35.92 26.64 43.86 37.28 43.86 37.28 33.76 37.7 33.76 37.7 44.29"/><rect class="cls-1" x="14.32" y="36.13" width="3.58" height="3.58"/><polygon class="cls-1" points="39.21 18.79 24.04 3.61 8.86 18.79 8.56 18.49 24.04 3.02 24.18 3.17 39.51 18.49 39.21 18.79"/><rect class="cls-1" x="20.47" y="34.34" width="7.13" height=".42"/><path class="cls-1" d="M37.7,31.96v-13.05l-13.51-13.51-.15-.15-13.6,13.6-.06.06v13.05h-1.66v.42h30.65v-.42h-1.66ZM10.79,19.09l13.24-13.24,13.24,13.24v12.88H10.79v-12.88Z"/><rect class="cls-1" x="14.57" y="24.64" width="3.58" height="3.58"/><rect class="cls-1" x="22.21" y="24.64" width="3.58" height="3.58"/><rect class="cls-1" x="30.18" y="36.13" width="3.58" height="3.58"/><rect class="cls-1" x="29.86" y="24.64" width="3.58" height="3.58"/><rect class="cls-1" x="18.42" y="17.11" width="3.58" height="3.58"/><rect class="cls-1" x="26.07" y="17.11" width="3.58" height="3.58"/></svg>