<?xml version="1.0" encoding="UTF-8"?><svg id="Layer_1" xmlns="http://www.w3.org/2000/svg" viewBox="0 0 48 48"><defs><style>.cls-1{fill:#0039d5;}</style></defs><polygon class="cls-1" points="37.66 40.91 31.3 40.91 31.3 32.97 26.94 32.97 26.94 40.91 10.34 40.91 10.34 30.38 10.76 30.38 10.76 40.49 26.52 40.49 26.52 32.54 31.72 32.54 31.72 40.49 37.24 40.49 37.24 30.38 37.66 30.38 37.66 40.91"/><rect class="cls-1" x="17.1" y="32.76" width="3.58" height="3.58"/><polygon class="cls-1" points="39.18 22.86 24 7.69 8.82 22.86 8.52 22.56 24 7.09 39.48 22.56 39.18 22.86"/><rect class="cls-1" x="25.55" y="30.96" width="7.13" height=".42"/><path class="cls-1" d="M37.66,28.59v-5.61l-13.66-13.66-13.6,13.6-.06.06v5.61h-1.66v.42h30.65v-.42h-1.66ZM10.76,23.16l13.24-13.24,13.24,13.24v5.43H10.76v-5.43Z"/><rect class="cls-1" x="17.1" y="21.27" width="3.58" height="3.58"/><rect class="cls-1" x="27.33" y="21.27" width="3.58" height="3.58"/></svg>