<?xml version="1.0" encoding="UTF-8"?><svg id="Layer_1" xmlns="http://www.w3.org/2000/svg" viewBox="0 0 48 48"><defs><style>.cls-1{fill:#0039d5;}</style></defs><path class="cls-1" d="M16.66,17.39l16.59,6.61-16.59,6.61,2.87-6.61-2.87-6.61ZM32.11,24l-14.66-5.84,2.53,5.84-2.53,5.84,14.66-5.84Z"/><path class="cls-1" d="M13.63,34.37c2.77,2.77,6.45,4.3,10.37,4.3s7.6-1.53,10.37-4.3c2.77-2.77,4.3-6.45,4.3-10.37s-1.53-7.6-4.3-10.37c-2.77-2.77-6.45-4.3-10.37-4.3s-7.6,1.53-10.37,4.3c-2.77,2.77-4.3,6.45-4.3,10.37s1.53,7.6,4.3,10.37ZM13.78,14.08l1.18,1.18.3-.3-1.18-1.18c2.62-2.55,6.06-3.97,9.71-4.02v1.67h.42v-1.67c3.66.05,7.09,1.47,9.71,4.02l-1.18,1.18.3.3,1.18-1.18c2.55,2.62,3.97,6.06,4.02,9.71h-1.67v.42h1.67c-.05,3.66-1.47,7.09-4.02,9.71l-1.18-1.18-.3.3,1.18,1.18c-2.62,2.55-6.06,3.97-9.71,4.02v-1.67h-.42v1.67c-3.73-.05-7.22-1.53-9.86-4.17-2.63-2.63-4.11-6.11-4.17-9.82h1.58v-.42h-1.58c.04-3.67,1.47-7.12,4.02-9.75Z"/><rect class="cls-1" x="13.37" y="33.35" width="1.88" height=".42" transform="translate(-19.54 19.94) rotate(-45)"/></svg>